<?xml version="1.0" encoding="utf-8"?>
<!-- Generator: Adobe Illustrator 19.0.0, SVG Export Plug-In . SVG Version: 6.00 Build 0)  -->
<svg version="1.1" id="Layer_1" xmlns="http://www.w3.org/2000/svg" xmlns:xlink="http://www.w3.org/1999/xlink" x="0px" y="0px"
	 viewBox="0 0 1980 1080" style="enable-background:new 0 0 1980 1080;" xml:space="preserve">
<g id="XMLID_17_">
	<polygon id="XMLID_18_" points="432.2,420.3 342,571.7 249.2,420.3 170.4,420.3 170.4,704.9 511.9,704.9 511.1,420.3 	"/>
	<path id="XMLID_26_" d="M641.6,383.7c-10-8.4-23.4-12.6-40.2-12.6c-16.8,0-30.2,4.5-40.3,13.4c-10,8.9-15,20.1-15,33.3
		c0,13.3,5,24.4,15,33.3c10,8.9,23.4,13.4,40.3,13.4c16.8,0,30.2-4.5,40.2-13.6c10-9.1,15-20.7,15-34.8
		C656.6,402.9,651.6,392.1,641.6,383.7z"/>
	<rect id="XMLID_35_" x="555.4" y="482.5" width="91.9" height="222.4"/>
	<path id="XMLID_36_" d="M839.2,587c0,10.8-1.5,19.6-4.5,26.2c-3,6.6-6.8,11.4-11.6,14.2c-4.7,2.8-9.8,4.3-15.2,4.3
		c-8.9,0-16-3.1-21.1-9.4c-5.2-6.2-7.7-17.2-7.7-32.9V482.5h-91.9v122.8c0,24.1,4.1,43.8,12.2,59.2c8.1,15.3,19.3,26.6,33.5,33.7
		c14.2,7.2,30.1,10.8,47.8,10.8c16.8,0,32.5-4.1,47-12.4c5.9-3.4,11.3-7.5,16.1-12.4v20.7H931V482.5h-91.9V587z"/>
	<path id="XMLID_37_" d="M1204.5,556.9c-0.7-0.3-1.3-0.5-2-0.7c11.5-6.1,20.6-13.7,27.2-23c8-11.2,12-24.1,12-38.4
		c0-21.7-9.4-39.5-28.1-53.5c-18.7-14-47.7-20.9-87-20.9H974.5v284.6h160.2c39.3,0,69.2-6.9,89.6-20.7
		c20.5-13.8,30.7-33.1,30.7-57.7c0-16.5-4.4-30.7-13.2-42.5C1233.1,572.1,1220.6,563.1,1204.5,556.9z"/>
	<rect id="XMLID_38_" x="1286" y="482.5" width="91.9" height="222.4"/>
	<path id="XMLID_39_" d="M1372.2,383.7c-10-8.4-23.4-12.6-40.3-12.6c-16.8,0-30.2,4.5-40.3,13.4c-10,8.9-15,20.1-15,33.3
		c0,13.3,5,24.4,15,33.3c10,8.9,23.4,13.4,40.3,13.4c16.8,0,30.2-4.5,40.3-13.6c10-9.1,15-20.7,15-34.8
		C1387.2,402.9,1382.2,392.1,1372.2,383.7z"/>
	<path id="XMLID_40_" d="M1539.7,639.4c-5.4,0-10-1.9-13.6-5.7c-3.7-3.8-5.5-9.1-5.5-15.9v-68.3h45.5v-67.1h-45.5v-62.2h-91.9v62.2
		h-30.5v67.1h30.5v69.1c0,30.6,8.5,53.3,25.6,68.1c17.1,14.8,40.9,22.2,71.6,22.2c10.8,0,21.2-1,31.1-2.8c9.9-1.9,18.4-4.9,25.4-8.9
		l-22-63.8C1554.4,637.4,1547.5,639.4,1539.7,639.4z"/>
	<polygon id="XMLID_41_" points="1713.1,637.8 1805.2,535.3 1805.2,482.5 1600.7,482.5 1600.7,549.6 1689.4,549.6 1597.4,652 
		1597.4,704.9 1809.6,704.9 1809.6,637.8 	"/>
</g>
</svg>
